<svg width="89" height="77" viewBox="0 0 89 77" fill="none" xmlns="http://www.w3.org/2000/svg">
<path d="M64.5 23.0588H47.7941V40H41.1275V23.0588H24.5V17.0196H41.1275V0H47.7941V17.0196H64.5V23.0588Z" fill="#B1AEA8"/>
<path d="M9.044 71H7.448L2.646 63.734V71H1.05V61.256H2.646L7.448 68.508V61.256H9.044V71ZM18.2098 66.926C18.2098 67.1967 18.1912 67.4487 18.1538 67.682H12.2458C12.2832 68.326 12.4978 68.8393 12.8898 69.222C13.2912 69.5953 13.7905 69.782 14.3878 69.782C15.2558 69.782 15.8672 69.4227 16.2218 68.704H17.9438C17.7105 69.4133 17.2858 69.9967 16.6698 70.454C16.0538 70.902 15.2932 71.126 14.3878 71.126C13.6505 71.126 12.9972 70.9627 12.4278 70.636C11.8585 70.3 11.4105 69.8333 11.0838 69.236C10.7665 68.6293 10.6078 67.9293 10.6078 67.136C10.6078 66.3427 10.7665 65.6473 11.0838 65.05C11.4105 64.4433 11.8632 63.9767 12.4418 63.65C13.0298 63.3233 13.7018 63.16 14.4578 63.16C15.1858 63.16 15.8345 63.3187 16.4038 63.636C16.9732 63.9533 17.4165 64.3967 17.7338 64.966C18.0512 65.5353 18.2098 66.1887 18.2098 66.926ZM16.5438 66.59C16.5345 65.9553 16.3245 65.4513 15.9138 65.078C15.5032 64.6953 14.9945 64.504 14.3878 64.504C13.8185 64.504 13.3332 64.6953 12.9318 65.078C12.5398 65.4513 12.3158 65.9553 12.2598 66.59H16.5438ZM30.1405 63.286L27.7465 71H26.0665L24.5125 65.302L22.9585 71H21.2785L18.8705 63.286H20.4945L22.1045 69.488L23.7425 63.286H25.4085L26.9765 69.46L28.5725 63.286H30.1405ZM38.6385 63.16C39.2451 63.16 39.7771 63.3 40.2345 63.58C40.7011 63.8507 41.0605 64.21 41.3125 64.658V63.286H42.9225V71H41.3125V69.558C41.0511 70.034 40.6918 70.4167 40.2345 70.706C39.7771 70.986 39.2451 71.126 38.6385 71.126C37.9665 71.126 37.3505 70.958 36.7905 70.622C36.2398 70.2767 35.8011 69.8007 35.4745 69.194C35.1571 68.578 34.9985 67.8827 34.9985 67.108C34.9985 66.3333 35.1571 65.6473 35.4745 65.05C35.8011 64.4527 36.2398 63.9907 36.7905 63.664C37.3505 63.328 37.9665 63.16 38.6385 63.16ZM38.9745 64.546C38.5638 64.546 38.1811 64.6487 37.8265 64.854C37.4718 65.05 37.1825 65.344 36.9585 65.736C36.7438 66.1187 36.6365 66.576 36.6365 67.108C36.6365 67.64 36.7438 68.1067 36.9585 68.508C37.1825 68.9093 37.4718 69.2173 37.8265 69.432C38.1905 69.6373 38.5731 69.74 38.9745 69.74C39.3851 69.74 39.7678 69.6373 40.1225 69.432C40.4771 69.2267 40.7618 68.928 40.9765 68.536C41.2005 68.1347 41.3125 67.668 41.3125 67.136C41.3125 66.604 41.2005 66.142 40.9765 65.75C40.7618 65.358 40.4771 65.0593 40.1225 64.854C39.7678 64.6487 39.3851 64.546 38.9745 64.546ZM46.6148 64.63C46.8481 64.1633 47.1561 63.804 47.5388 63.552C47.9308 63.2907 48.3928 63.16 48.9248 63.16V64.812H48.5188C47.8934 64.812 47.4174 64.9707 47.0908 65.288C46.7734 65.6053 46.6148 66.156 46.6148 66.94V71H45.0188V63.286H46.6148V64.63ZM52.2538 64.588V68.858C52.2538 69.1473 52.3191 69.3573 52.4498 69.488C52.5898 69.6093 52.8231 69.67 53.1498 69.67H54.1298V71H52.8698C52.1511 71 51.6005 70.832 51.2178 70.496C50.8351 70.16 50.6438 69.614 50.6438 68.858V64.588H49.7338V63.286H50.6438V61.368H52.2538V63.286H54.1298V64.588H52.2538ZM65.9608 63.286L63.5668 71H61.8868L60.3328 65.302L58.7788 71H57.0988L54.6908 63.286H56.3148L57.9248 69.488L59.5628 63.286H61.2288L62.7968 69.46L64.3928 63.286H65.9608ZM70.5695 63.16C71.3068 63.16 71.9742 63.3233 72.5715 63.65C73.1688 63.9767 73.6402 64.4433 73.9855 65.05C74.3308 65.6567 74.5035 66.352 74.5035 67.136C74.5035 67.92 74.3262 68.6153 73.9715 69.222C73.6168 69.8287 73.1315 70.3 72.5155 70.636C71.9088 70.9627 71.2368 71.126 70.4995 71.126C69.7715 71.126 69.1135 70.9627 68.5255 70.636C67.9375 70.3 67.4755 69.8333 67.1395 69.236C66.8035 68.6293 66.6355 67.9293 66.6355 67.136C66.6355 66.352 66.8082 65.6567 67.1535 65.05C67.4988 64.4433 67.9702 63.9767 68.5675 63.65C69.1648 63.3233 69.8322 63.16 70.5695 63.16ZM70.5415 64.504C70.1308 64.504 69.7528 64.6067 69.4075 64.812C69.0622 65.008 68.7822 65.3067 68.5675 65.708C68.3622 66.1 68.2595 66.576 68.2595 67.136C68.2595 67.696 68.3575 68.1767 68.5535 68.578C68.7588 68.9793 69.0295 69.2827 69.3655 69.488C69.7108 69.684 70.0888 69.782 70.4995 69.782C70.9102 69.782 71.2928 69.6793 71.6475 69.474C72.0115 69.2687 72.3055 68.97 72.5295 68.578C72.7535 68.1767 72.8655 67.696 72.8655 67.136C72.8655 66.576 72.7582 66.1 72.5435 65.708C72.3288 65.3067 72.0442 65.008 71.6895 64.812C71.3348 64.6067 70.9522 64.504 70.5415 64.504ZM77.6773 64.63C77.9106 64.1633 78.2186 63.804 78.6013 63.552C78.9933 63.2907 79.4553 63.16 79.9873 63.16V64.812H79.5813C78.9559 64.812 78.4799 64.9707 78.1533 65.288C77.8359 65.6053 77.6773 66.156 77.6773 66.94V71H76.0813V63.286H77.6773V64.63ZM84.5063 67.15L88.0623 71H85.9063L83.0503 67.682V71H81.4543V60.64H83.0503V66.66L85.8503 63.286H88.0623L84.5063 67.15Z" fill="#535353"/>
</svg>
