<svg width="142" height="96" viewBox="0 0 142 96" fill="none" xmlns="http://www.w3.org/2000/svg">
<path d="M64 19.8562H68.6187V41C68.6187 41.275 68.8437 41.5 69.1187 41.5H72.8688C73.1438 41.5 73.3688 41.275 73.3688 41V19.8562H78C78.4187 19.8562 78.65 19.375 78.3937 19.05L71.3937 10.1874C71.347 10.1277 71.2872 10.0794 71.219 10.0461C71.1508 10.0129 71.0759 9.99561 71 9.99561C70.9241 9.99561 70.8492 10.0129 70.781 10.0461C70.7128 10.0794 70.653 10.1277 70.6063 10.1874L63.6063 19.0437C63.35 19.375 63.5813 19.8562 64 19.8562V19.8562ZM93.875 39.125H90.125C89.85 39.125 89.625 39.35 89.625 39.625V49.25H52.375V39.625C52.375 39.35 52.15 39.125 51.875 39.125H48.125C47.85 39.125 47.625 39.35 47.625 39.625V52C47.625 53.1062 48.5187 54 49.625 54H92.375C93.4813 54 94.375 53.1062 94.375 52V39.625C94.375 39.35 94.15 39.125 93.875 39.125Z" fill="black"/>
<path d="M3.39081 78.88V85.936C3.39081 86.7787 3.60948 87.4133 4.04681 87.84C4.49481 88.2667 5.11348 88.48 5.90281 88.48C6.70281 88.48 7.32148 88.2667 7.75881 87.84C8.20681 87.4133 8.43081 86.7787 8.43081 85.936V78.88H10.2548V85.936C10.2548 86.8427 10.0575 87.6107 9.66281 88.24C9.26815 88.8693 8.74015 89.3387 8.07881 89.648C7.41748 89.9573 6.68681 90.112 5.88681 90.112C5.08681 90.112 4.35615 89.9573 3.69481 89.648C3.04415 89.3387 2.52681 88.8693 2.14281 88.24C1.75881 87.6107 1.56681 86.8427 1.56681 85.936V78.88H3.39081ZM17.5257 81.04C18.2937 81.04 18.9924 81.232 19.6217 81.616C20.2617 81.9893 20.763 82.5173 21.1257 83.2C21.4884 83.8827 21.6697 84.6667 21.6697 85.552C21.6697 86.4373 21.4884 87.232 21.1257 87.936C20.763 88.6293 20.2617 89.1733 19.6217 89.568C18.9924 89.952 18.2937 90.144 17.5257 90.144C16.8324 90.144 16.2244 89.984 15.7017 89.664C15.179 89.3333 14.763 88.896 14.4537 88.352V94.192H12.6297V81.184H14.4537V82.752C14.7524 82.24 15.163 81.8293 15.6857 81.52C16.219 81.2 16.8324 81.04 17.5257 81.04ZM17.1257 82.624C16.667 82.624 16.2297 82.7413 15.8137 82.976C15.4084 83.2107 15.0777 83.552 14.8217 84C14.5764 84.448 14.4537 84.976 14.4537 85.584C14.4537 86.192 14.5764 86.7253 14.8217 87.184C15.0777 87.632 15.4084 87.9733 15.8137 88.208C16.2297 88.4427 16.667 88.56 17.1257 88.56C17.595 88.56 18.0324 88.4427 18.4377 88.208C18.8537 87.9627 19.1844 87.6107 19.4297 87.152C19.6857 86.6933 19.8137 86.16 19.8137 85.552C19.8137 84.944 19.6857 84.4213 19.4297 83.984C19.1844 83.536 18.8537 83.2 18.4377 82.976C18.0324 82.7413 17.595 82.624 17.1257 82.624ZM25.2974 78.16V90H23.4734V78.16H25.2974ZM31.5962 81.04C32.4389 81.04 33.2015 81.2267 33.8842 81.6C34.5669 81.9733 35.1055 82.5067 35.5002 83.2C35.8949 83.8933 36.0922 84.688 36.0922 85.584C36.0922 86.48 35.8895 87.2747 35.4842 87.968C35.0789 88.6613 34.5242 89.2 33.8202 89.584C33.1269 89.9573 32.3589 90.144 31.5162 90.144C30.6842 90.144 29.9322 89.9573 29.2602 89.584C28.5882 89.2 28.0602 88.6667 27.6762 87.984C27.2922 87.2907 27.1002 86.4907 27.1002 85.584C27.1002 84.688 27.2975 83.8933 27.6922 83.2C28.0869 82.5067 28.6255 81.9733 29.3082 81.6C29.9909 81.2267 30.7535 81.04 31.5962 81.04ZM31.5642 82.576C31.0949 82.576 30.6629 82.6933 30.2682 82.928C29.8735 83.152 29.5535 83.4933 29.3082 83.952C29.0735 84.4 28.9562 84.944 28.9562 85.584C28.9562 86.224 29.0682 86.7733 29.2922 87.232C29.5269 87.6907 29.8362 88.0373 30.2202 88.272C30.6149 88.496 31.0469 88.608 31.5162 88.608C31.9855 88.608 32.4229 88.4907 32.8282 88.256C33.2442 88.0213 33.5802 87.68 33.8362 87.232C34.0922 86.7733 34.2202 86.224 34.2202 85.584C34.2202 84.944 34.0975 84.4 33.8522 83.952C33.6069 83.4933 33.2815 83.152 32.8762 82.928C32.4709 82.6933 32.0335 82.576 31.5642 82.576ZM41.4473 81.04C42.1406 81.04 42.7486 81.2 43.2713 81.52C43.8046 81.8293 44.2153 82.24 44.5033 82.752V81.184H46.3433V90H44.5033V88.352C44.2046 88.896 43.794 89.3333 43.2713 89.664C42.7486 89.984 42.1406 90.144 41.4473 90.144C40.6793 90.144 39.9753 89.952 39.3353 89.568C38.706 89.1733 38.2046 88.6293 37.8313 87.936C37.4686 87.232 37.2873 86.4373 37.2873 85.552C37.2873 84.6667 37.4686 83.8827 37.8313 83.2C38.2046 82.5173 38.706 81.9893 39.3353 81.616C39.9753 81.232 40.6793 81.04 41.4473 81.04ZM41.8313 82.624C41.362 82.624 40.9246 82.7413 40.5193 82.976C40.114 83.2 39.7833 83.536 39.5273 83.984C39.282 84.4213 39.1593 84.944 39.1593 85.552C39.1593 86.16 39.282 86.6933 39.5273 87.152C39.7833 87.6107 40.114 87.9627 40.5193 88.208C40.9353 88.4427 41.3726 88.56 41.8313 88.56C42.3006 88.56 42.738 88.4427 43.1433 88.208C43.5486 87.9733 43.874 87.632 44.1193 87.184C44.3753 86.7253 44.5033 86.192 44.5033 85.584C44.5033 84.976 44.3753 84.448 44.1193 84C43.874 83.552 43.5486 83.2107 43.1433 82.976C42.738 82.7413 42.3006 82.624 41.8313 82.624ZM52.2911 81.04C52.9844 81.04 53.5924 81.2 54.1151 81.52C54.6484 81.8293 55.0591 82.24 55.3471 82.752V78.16H57.1871V90H55.3471V88.352C55.0484 88.896 54.6377 89.3333 54.1151 89.664C53.5924 89.984 52.9844 90.144 52.2911 90.144C51.5231 90.144 50.8191 89.952 50.1791 89.568C49.5497 89.1733 49.0484 88.6293 48.6751 87.936C48.3124 87.232 48.1311 86.4373 48.1311 85.552C48.1311 84.6667 48.3124 83.8827 48.6751 83.2C49.0484 82.5173 49.5497 81.9893 50.1791 81.616C50.8191 81.232 51.5231 81.04 52.2911 81.04ZM52.6751 82.624C52.2057 82.624 51.7684 82.7413 51.3631 82.976C50.9577 83.2 50.6271 83.536 50.3711 83.984C50.1257 84.4213 50.0031 84.944 50.0031 85.552C50.0031 86.16 50.1257 86.6933 50.3711 87.152C50.6271 87.6107 50.9577 87.9627 51.3631 88.208C51.7791 88.4427 52.2164 88.56 52.6751 88.56C53.1444 88.56 53.5817 88.4427 53.9871 88.208C54.3924 87.9733 54.7177 87.632 54.9631 87.184C55.2191 86.7253 55.3471 86.192 55.3471 85.584C55.3471 84.976 55.2191 84.448 54.9631 84C54.7177 83.552 54.3924 83.2107 53.9871 82.976C53.5817 82.7413 53.1444 82.624 52.6751 82.624ZM67.9317 81.04C68.625 81.04 69.233 81.2 69.7557 81.52C70.289 81.8293 70.6997 82.24 70.9877 82.752V81.184H72.8277V90H70.9877V88.352C70.689 88.896 70.2784 89.3333 69.7557 89.664C69.233 89.984 68.625 90.144 67.9317 90.144C67.1637 90.144 66.4597 89.952 65.8197 89.568C65.1904 89.1733 64.689 88.6293 64.3157 87.936C63.953 87.232 63.7717 86.4373 63.7717 85.552C63.7717 84.6667 63.953 83.8827 64.3157 83.2C64.689 82.5173 65.1904 81.9893 65.8197 81.616C66.4597 81.232 67.1637 81.04 67.9317 81.04ZM68.3157 82.624C67.8464 82.624 67.409 82.7413 67.0037 82.976C66.5984 83.2 66.2677 83.536 66.0117 83.984C65.7664 84.4213 65.6437 84.944 65.6437 85.552C65.6437 86.16 65.7664 86.6933 66.0117 87.152C66.2677 87.6107 66.5984 87.9627 67.0037 88.208C67.4197 88.4427 67.857 88.56 68.3157 88.56C68.785 88.56 69.2224 88.4427 69.6277 88.208C70.033 87.9733 70.3584 87.632 70.6037 87.184C70.8597 86.7253 70.9877 86.192 70.9877 85.584C70.9877 84.976 70.8597 84.448 70.6037 84C70.3584 83.552 70.033 83.2107 69.6277 82.976C69.2224 82.7413 68.785 82.624 68.3157 82.624ZM79.8634 81.04C80.5034 81.04 81.0794 81.184 81.5914 81.472C82.1141 81.76 82.5248 82.1867 82.8234 82.752C83.1328 83.3173 83.2874 84 83.2874 84.8V90H81.4794V85.072C81.4794 84.2827 81.2821 83.68 80.8874 83.264C80.4928 82.8373 79.9541 82.624 79.2714 82.624C78.5888 82.624 78.0448 82.8373 77.6394 83.264C77.2448 83.68 77.0474 84.2827 77.0474 85.072V90H75.2234V81.184H77.0474V82.576C77.3354 82.0747 77.7194 81.696 78.1994 81.44C78.6901 81.1733 79.2448 81.04 79.8634 81.04ZM90.1709 78.848C90.1709 78.5173 90.2829 78.24 90.5069 78.016C90.7309 77.792 91.0083 77.68 91.3389 77.68C91.6589 77.68 91.9309 77.792 92.1549 78.016C92.3789 78.24 92.4909 78.5173 92.4909 78.848C92.4909 79.1787 92.3789 79.456 92.1549 79.68C91.9309 79.904 91.6589 80.016 91.3389 80.016C91.0083 80.016 90.7309 79.904 90.5069 79.68C90.2829 79.456 90.1709 79.1787 90.1709 78.848ZM92.2349 81.184V90H90.4109V81.184H92.2349ZM105.462 81.04C106.123 81.04 106.715 81.184 107.238 81.472C107.76 81.76 108.171 82.1867 108.47 82.752C108.779 83.3173 108.934 84 108.934 84.8V90H107.11V85.072C107.11 84.2827 106.912 83.68 106.518 83.264C106.123 82.8373 105.584 82.624 104.902 82.624C104.219 82.624 103.68 82.8373 103.286 83.264C102.891 83.68 102.694 84.2827 102.694 85.072V90H100.886V85.072C100.886 84.2827 100.688 83.68 100.294 83.264C99.899 82.8373 99.3604 82.624 98.6777 82.624C97.995 82.624 97.451 82.8373 97.0457 83.264C96.651 83.68 96.4537 84.2827 96.4537 85.072V90H94.6297V81.184H96.4537V82.576C96.7417 82.0747 97.1257 81.696 97.6057 81.44C98.0964 81.1733 98.651 81.04 99.2697 81.04C99.9524 81.04 100.56 81.2 101.094 81.52C101.627 81.84 102.032 82.304 102.31 82.912C102.619 82.3253 103.046 81.8667 103.59 81.536C104.144 81.2053 104.768 81.04 105.462 81.04ZM114.807 81.04C115.5 81.04 116.108 81.2 116.631 81.52C117.164 81.8293 117.575 82.24 117.863 82.752V81.184H119.703V90H117.863V88.352C117.564 88.896 117.153 89.3333 116.631 89.664C116.108 89.984 115.5 90.144 114.807 90.144C114.039 90.144 113.335 89.952 112.695 89.568C112.065 89.1733 111.564 88.6293 111.191 87.936C110.828 87.232 110.647 86.4373 110.647 85.552C110.647 84.6667 110.828 83.8827 111.191 83.2C111.564 82.5173 112.065 81.9893 112.695 81.616C113.335 81.232 114.039 81.04 114.807 81.04ZM115.191 82.624C114.721 82.624 114.284 82.7413 113.879 82.976C113.473 83.2 113.143 83.536 112.887 83.984C112.641 84.4213 112.519 84.944 112.519 85.552C112.519 86.16 112.641 86.6933 112.887 87.152C113.143 87.6107 113.473 87.9627 113.879 88.208C114.295 88.4427 114.732 88.56 115.191 88.56C115.66 88.56 116.097 88.4427 116.503 88.208C116.908 87.9733 117.233 87.632 117.479 87.184C117.735 86.7253 117.863 86.192 117.863 85.584C117.863 84.976 117.735 84.448 117.479 84C117.233 83.552 116.908 83.2107 116.503 82.976C116.097 82.7413 115.66 82.624 115.191 82.624ZM125.65 81.04C126.344 81.04 126.952 81.2 127.474 81.52C128.008 81.8293 128.418 82.24 128.706 82.752V81.184H130.546V90.144C130.546 90.9547 130.376 91.6747 130.034 92.304C129.693 92.944 129.197 93.4453 128.546 93.808C127.906 94.1707 127.138 94.352 126.242 94.352C125.048 94.352 124.056 94.0693 123.266 93.504C122.477 92.9493 122.029 92.192 121.922 91.232H123.73C123.869 91.6907 124.162 92.0587 124.61 92.336C125.069 92.624 125.613 92.768 126.242 92.768C126.978 92.768 127.57 92.544 128.018 92.096C128.477 91.648 128.706 90.9973 128.706 90.144V88.352C128.408 88.896 127.997 89.3333 127.474 89.664C126.952 89.984 126.344 90.144 125.65 90.144C124.882 90.144 124.178 89.952 123.538 89.568C122.909 89.1733 122.408 88.6293 122.034 87.936C121.672 87.232 121.49 86.4373 121.49 85.552C121.49 84.6667 121.672 83.8827 122.034 83.2C122.408 82.5173 122.909 81.9893 123.538 81.616C124.178 81.232 124.882 81.04 125.65 81.04ZM126.034 82.624C125.565 82.624 125.128 82.7413 124.722 82.976C124.317 83.2 123.986 83.536 123.73 83.984C123.485 84.4213 123.362 84.944 123.362 85.552C123.362 86.16 123.485 86.6933 123.73 87.152C123.986 87.6107 124.317 87.9627 124.722 88.208C125.138 88.4427 125.576 88.56 126.034 88.56C126.504 88.56 126.941 88.4427 127.346 88.208C127.752 87.9733 128.077 87.632 128.322 87.184C128.578 86.7253 128.706 86.192 128.706 85.584C128.706 84.976 128.578 84.448 128.322 84C128.077 83.552 127.752 83.2107 127.346 82.976C126.941 82.7413 126.504 82.624 126.034 82.624ZM141.022 85.344C141.022 85.6533 141.001 85.9413 140.958 86.208H134.206C134.249 86.944 134.494 87.5307 134.942 87.968C135.401 88.3947 135.972 88.608 136.654 88.608C137.646 88.608 138.345 88.1973 138.75 87.376H140.718C140.452 88.1867 139.966 88.8533 139.262 89.376C138.558 89.888 137.689 90.144 136.654 90.144C135.812 90.144 135.065 89.9573 134.414 89.584C133.764 89.2 133.252 88.6667 132.878 87.984C132.516 87.2907 132.334 86.4907 132.334 85.584C132.334 84.6773 132.516 83.8827 132.878 83.2C133.252 82.5067 133.769 81.9733 134.43 81.6C135.102 81.2267 135.87 81.04 136.734 81.04C137.566 81.04 138.308 81.2213 138.958 81.584C139.609 81.9467 140.116 82.4533 140.478 83.104C140.841 83.7547 141.022 84.5013 141.022 85.344ZM139.118 84.96C139.108 84.2347 138.868 83.6587 138.398 83.232C137.929 82.7947 137.348 82.576 136.654 82.576C136.004 82.576 135.449 82.7947 134.99 83.232C134.542 83.6587 134.286 84.2347 134.222 84.96H139.118Z" fill="black"/>
</svg>
